<svg id="Component_150_1" data-name="Component 150 – 1" xmlns="http://www.w3.org/2000/svg" width="411" height="180" viewBox="0 0 411 180">
  <g id="Group_582" data-name="Group 582" transform="translate(-715 -482)">
    <circle id="Ellipse_357" data-name="Ellipse 357" cx="19" cy="19" r="19" transform="translate(715 624)" fill="#efefef"/>
    <path id="Icon_material-person" data-name="Icon material-person" d="M16,16a5,5,0,1,0-5-5A5,5,0,0,0,16,16Zm0,2.5c-3.338,0-10,1.675-10,5V26H26V23.5C26,20.175,19.337,18.5,16,18.5Z" transform="translate(718 627)"/>
  </g>
  <g id="Group_583" data-name="Group 583" transform="translate(-670 -482)">
    <circle id="Ellipse_357-2" data-name="Ellipse 357" cx="19" cy="19" r="19" transform="translate(715 624)" fill="#efefef"/>
    <path id="Icon_material-person-2" data-name="Icon material-person" d="M16,16a5,5,0,1,0-5-5A5,5,0,0,0,16,16Zm0,2.5c-3.338,0-10,1.675-10,5V26H26V23.5C26,20.175,19.337,18.5,16,18.5Z" transform="translate(718 627)"/>
  </g>
  <g id="Group_584" data-name="Group 584" transform="translate(-625 -482)">
    <circle id="Ellipse_357-3" data-name="Ellipse 357" cx="19" cy="19" r="19" transform="translate(715 624)" fill="#efefef"/>
    <path id="Icon_material-person-3" data-name="Icon material-person" d="M16,16a5,5,0,1,0-5-5A5,5,0,0,0,16,16Zm0,2.5c-3.338,0-10,1.675-10,5V26H26V23.5C26,20.175,19.337,18.5,16,18.5Z" transform="translate(718 627)"/>
  </g>
  <g id="Group_586" data-name="Group 586" transform="translate(-450 -482)">
    <circle id="Ellipse_357-4" data-name="Ellipse 357" cx="19" cy="19" r="19" transform="translate(715 624)" fill="#efefef"/>
    <path id="Icon_material-person-4" data-name="Icon material-person" d="M16,16a5,5,0,1,0-5-5A5,5,0,0,0,16,16Zm0,2.5c-3.338,0-10,1.675-10,5V26H26V23.5C26,20.175,19.337,18.5,16,18.5Z" transform="translate(718 627)"/>
  </g>
  <g id="Group_590" data-name="Group 590" transform="translate(173 142)">
    <circle id="Ellipse_357-5" data-name="Ellipse 357" cx="19" cy="19" r="19" fill="#efefef"/>
    <path id="Icon_material-person-5" data-name="Icon material-person" d="M16,16a5,5,0,1,1,5-5A5,5,0,0,1,16,16Zm0,2.5c3.338,0,10,1.675,10,5V26H6V23.5C6,20.175,12.663,18.5,16,18.5Z" transform="translate(3 3)"/>
  </g>
  <g id="Group_589" data-name="Group 589" transform="translate(-358 -482)">
    <circle id="Ellipse_357-6" data-name="Ellipse 357" cx="19" cy="19" r="19" transform="translate(715 624)" fill="#efefef"/>
    <path id="Icon_material-person-6" data-name="Icon material-person" d="M16,16a5,5,0,1,0-5-5A5,5,0,0,0,16,16Zm0,2.5c-3.338,0-10,1.675-10,5V26H26V23.5C26,20.175,19.337,18.5,16,18.5Z" transform="translate(718 627)"/>
  </g>
  <path id="Path_394" data-name="Path 394" d="M-6118.8-6975H-6144v37.97" transform="translate(6207.8 7080)" fill="none" stroke="#999" stroke-width="1"/>
  <path id="Path_393" data-name="Path 393" d="M-6144-6975h26v37.97" transform="translate(6182 7080)" fill="none" stroke="#999" stroke-width="1"/>
  <path id="Path_395" data-name="Path 395" d="M-6144-6975h29v37.97" transform="translate(6399 7080)" fill="none" stroke="#999" stroke-width="1"/>
  <path id="Path_396" data-name="Path 396" d="M-6119-6975h-25v37.97" transform="translate(6336 7080)" fill="none" stroke="#999" stroke-width="1"/>
  <path id="Path_389" data-name="Path 389" d="M-6111.1-6843.345v-19.7" transform="translate(6219 6986)" fill="none" stroke="#999" stroke-width="1"/>
  <path id="Path_392" data-name="Path 392" d="M-6111.1-6843.345v-19.7" transform="translate(6487.603 6986)" fill="none" stroke="#999" stroke-width="1"/>
  <path id="Path_386" data-name="Path 386" d="M-6199.5-6862.986v19.956" transform="translate(6219 6986)" fill="none" stroke="#999" stroke-width="1"/>
  <g id="Ellipse_351" data-name="Ellipse 351" transform="translate(29)" fill="#dddbdb" stroke="#000" stroke-width="2">
    <circle cx="35" cy="35" r="35" stroke="none"/>
    <circle cx="35" cy="35" r="34" fill="none"/>
  </g>
  <g id="Ellipse_352" data-name="Ellipse 352" transform="translate(202)" fill="#dddbdb" stroke="#000" stroke-width="2">
    <circle cx="35" cy="35" r="35" stroke="none"/>
    <circle cx="35" cy="35" r="34" fill="none"/>
  </g>
  <g id="Ellipse_353" data-name="Ellipse 353" transform="translate(341)" fill="#dddbdb" stroke="#000" stroke-width="2">
    <circle cx="35" cy="35" r="35" stroke="none"/>
    <circle cx="35" cy="35" r="34" fill="none"/>
  </g>
  <path id="Path_379" data-name="Path 379" d="M-6144-6975h12.97v51" transform="translate(6243 7010)" fill="none" stroke="#000" stroke-width="2"/>
  <path id="Path_380" data-name="Path 380" d="M-6131.03-6975H-6144v51" transform="translate(6160.03 7010)" fill="none" stroke="#000" stroke-width="2"/>
  <line id="Line_432" data-name="Line 432" y2="16" transform="translate(237.5 70)" fill="none" stroke="#000" stroke-width="2"/>
  <line id="Line_433" data-name="Line 433" y2="16" transform="translate(376.5 70)" fill="none" stroke="#000" stroke-width="2"/>
  <g id="Group_592" data-name="Group 592" transform="translate(-105 -259.327)">
    <path id="Path_360" data-name="Path 360" d="M29.454,38H.555A.555.555,0,0,1,0,37.445V.555A.555.555,0,0,1,.555,0H20.483a.555.555,0,0,1,.392.163L29.846,9.13a.555.555,0,0,1,.163.392V37.445a.555.555,0,0,1-.555.555M1.109,36.89H28.9V9.752L20.253,1.109H1.109Z" transform="translate(466 275.327)" stroke="#000" stroke-width="0.5"/>
    <path id="Path_361" data-name="Path 361" d="M80.132,10.945H71.726a.542.542,0,0,1-.542-.542V2a.542.542,0,0,1,1.084,0V9.861h7.864a.542.542,0,1,1,0,1.084" transform="translate(414.8 274.266)" stroke="#000" stroke-width="0.5"/>
    <path id="Path_363" data-name="Path 363" d="M54.793,49.856H43.982a.542.542,0,0,1,0-1.084H54.793a.542.542,0,0,1,0,1.084" transform="translate(434.801 240.093)" stroke="#000" stroke-width="0.5"/>
    <path id="Path_364" data-name="Path 364" d="M18.623,72.581a1.135,1.135,0,0,1-.809-.335l-1.2-1.2a.542.542,0,1,1,.766-.767l1.2,1.2a.059.059,0,0,0,.074.007l3.005-2.4a.542.542,0,1,1,.677.846l-3,2.4a1.132,1.132,0,0,1-.711.251" transform="translate(454.138 225.54)" stroke="#000" stroke-width="0.5"/>
    <path id="Path_365" data-name="Path 365" d="M54.793,74.976H43.982a.542.542,0,0,1,0-1.084H54.793a.542.542,0,0,1,0,1.084" transform="translate(434.801 221.945)" stroke="#000" stroke-width="0.5"/>
    <path id="Path_366" data-name="Path 366" d="M18.623,99.771a1.136,1.136,0,0,1-.809-.334l-1.2-1.2a.542.542,0,0,1,.766-.767l1.2,1.2a.06.06,0,0,0,.073.007l3.006-2.4a.542.542,0,1,1,.677.846l-3,2.4a1.13,1.13,0,0,1-.711.251" transform="translate(454.138 205.911)" stroke="#000" stroke-width="0.5"/>
    <path id="Path_367" data-name="Path 367" d="M54.793,102.164H43.982a.542.542,0,0,1,0-1.084H54.793a.542.542,0,0,1,0,1.084" transform="translate(434.801 202.304)" stroke="#000" stroke-width="0.5"/>
  </g>
  <g id="Group_594" data-name="Group 594" transform="translate(-417.004 -259.327)">
    <path id="Path_360-2" data-name="Path 360" d="M29.454,38H.555A.555.555,0,0,1,0,37.445V.555A.555.555,0,0,1,.555,0H20.483a.555.555,0,0,1,.392.163L29.846,9.13a.555.555,0,0,1,.163.392V37.445a.555.555,0,0,1-.555.555M1.109,36.89H28.9V9.752L20.253,1.109H1.109Z" transform="translate(466 275.327)" stroke="#000" stroke-width="0.5"/>
    <path id="Path_361-2" data-name="Path 361" d="M80.132,10.945H71.726a.542.542,0,0,1-.542-.542V2a.542.542,0,0,1,1.084,0V9.861h7.864a.542.542,0,1,1,0,1.084" transform="translate(414.8 274.266)" stroke="#000" stroke-width="0.5"/>
    <path id="Path_363-2" data-name="Path 363" d="M54.793,49.856H43.982a.542.542,0,0,1,0-1.084H54.793a.542.542,0,0,1,0,1.084" transform="translate(434.801 240.093)" stroke="#000" stroke-width="0.5"/>
    <path id="Path_364-2" data-name="Path 364" d="M18.623,72.581a1.135,1.135,0,0,1-.809-.335l-1.2-1.2a.542.542,0,1,1,.766-.767l1.2,1.2a.059.059,0,0,0,.074.007l3.005-2.4a.542.542,0,1,1,.677.846l-3,2.4a1.132,1.132,0,0,1-.711.251" transform="translate(454.138 218.634)" stroke="#000" stroke-width="0.5"/>
    <path id="Path_365-2" data-name="Path 365" d="M54.793,74.976H43.982a.542.542,0,0,1,0-1.084H54.793a.542.542,0,0,1,0,1.084" transform="translate(434.801 221.945)" stroke="#000" stroke-width="0.5"/>
    <path id="Path_366-2" data-name="Path 366" d="M18.623,99.771a1.136,1.136,0,0,1-.809-.334l-1.2-1.2a.542.542,0,0,1,.766-.767l1.2,1.2a.06.06,0,0,0,.073.007l3.006-2.4a.542.542,0,1,1,.677.846l-3,2.4a1.13,1.13,0,0,1-.711.251" transform="translate(454.138 205.911)" stroke="#000" stroke-width="0.5"/>
    <path id="Path_367-2" data-name="Path 367" d="M54.793,102.164H43.982a.542.542,0,0,1,0-1.084H54.793a.542.542,0,0,1,0,1.084" transform="translate(434.801 202.304)" stroke="#000" stroke-width="0.5"/>
  </g>
  <g id="Group_593" data-name="Group 593" transform="translate(-244 -259.327)">
    <path id="Path_360-3" data-name="Path 360" d="M29.454,38H.555A.555.555,0,0,1,0,37.445V.555A.555.555,0,0,1,.555,0H20.483a.555.555,0,0,1,.392.163L29.846,9.13a.555.555,0,0,1,.163.392V37.445a.555.555,0,0,1-.555.555M1.109,36.89H28.9V9.752L20.253,1.109H1.109Z" transform="translate(466 275.327)" stroke="#000" stroke-width="0.5"/>
    <path id="Path_361-3" data-name="Path 361" d="M80.132,10.945H71.726a.542.542,0,0,1-.542-.542V2a.542.542,0,0,1,1.084,0V9.861h7.864a.542.542,0,1,1,0,1.084" transform="translate(414.8 274.266)" stroke="#000" stroke-width="0.5"/>
    <path id="Path_363-3" data-name="Path 363" d="M54.793,49.856H43.982a.542.542,0,0,1,0-1.084H54.793a.542.542,0,0,1,0,1.084" transform="translate(434.801 240.093)" stroke="#000" stroke-width="0.5"/>
    <path id="Path_364-3" data-name="Path 364" d="M18.623,72.581a1.135,1.135,0,0,1-.809-.335l-1.2-1.2a.542.542,0,1,1,.766-.767l1.2,1.2a.059.059,0,0,0,.074.007l3.005-2.4a.542.542,0,1,1,.677.846l-3,2.4a1.132,1.132,0,0,1-.711.251" transform="translate(454.138 225.54)" stroke="#000" stroke-width="0.5"/>
    <path id="Path_365-3" data-name="Path 365" d="M54.793,74.976H43.982a.542.542,0,0,1,0-1.084H54.793a.542.542,0,0,1,0,1.084" transform="translate(434.801 221.945)" stroke="#000" stroke-width="0.5"/>
    <path id="Path_366-3" data-name="Path 366" d="M18.623,99.771a1.136,1.136,0,0,1-.809-.334l-1.2-1.2a.542.542,0,0,1,.766-.767l1.2,1.2a.06.06,0,0,0,.073.007l3.006-2.4a.542.542,0,1,1,.677.846l-3,2.4a1.13,1.13,0,0,1-.711.251" transform="translate(454.138 191.444)" stroke="#000" stroke-width="0.5"/>
    <path id="Path_367-3" data-name="Path 367" d="M54.793,102.164H43.982a.542.542,0,0,1,0-1.084H54.793a.542.542,0,0,1,0,1.084" transform="translate(434.801 202.304)" stroke="#000" stroke-width="0.5"/>
  </g>
  <g id="Group_1225" data-name="Group 1225" transform="translate(-699 -430)">
    <circle id="Ellipse_347" data-name="Ellipse 347" cx="19" cy="19" r="19" transform="translate(699 516)" fill="#efefef"/>
    <path id="Icon_material-tablet-android5" data-name="Icon material-tablet-android5" d="M17.4,0H7.081A2.577,2.577,0,0,0,4.5,2.581V18.064a2.577,2.577,0,0,0,2.581,2.581H17.4a2.577,2.577,0,0,0,2.581-2.581V2.581A2.577,2.577,0,0,0,17.4,0ZM13.962,18.924H10.521v-.86h3.441Zm4.516-2.581H6.005V2.581H18.478Z" transform="translate(705.693 524.406)"/>
  </g>
  <g id="Group_1226" data-name="Group 1226" transform="translate(-610 -430)">
    <circle id="Ellipse_347-2" data-name="Ellipse 347" cx="19" cy="19" r="19" transform="translate(699 516)" fill="#efefef"/>
    <path id="Icon_material-tablet-android5-2" data-name="Icon material-tablet-android5" d="M17.4,0H7.081A2.577,2.577,0,0,0,4.5,2.581V18.064a2.577,2.577,0,0,0,2.581,2.581H17.4a2.577,2.577,0,0,0,2.581-2.581V2.581A2.577,2.577,0,0,0,17.4,0ZM13.962,18.924H10.521v-.86h3.441Zm4.516-2.581H6.005V2.581H18.478Z" transform="translate(705.693 524.406)"/>
  </g>
  <g id="Group_1227" data-name="Group 1227" transform="translate(-481 -430)">
    <circle id="Ellipse_347-3" data-name="Ellipse 347" cx="19" cy="19" r="19" transform="translate(699 516)" fill="#efefef"/>
    <path id="Icon_material-tablet-android5-3" data-name="Icon material-tablet-android5" d="M17.4,0H7.081A2.577,2.577,0,0,0,4.5,2.581V18.064a2.577,2.577,0,0,0,2.581,2.581H17.4a2.577,2.577,0,0,0,2.581-2.581V2.581A2.577,2.577,0,0,0,17.4,0ZM13.962,18.924H10.521v-.86h3.441Zm4.516-2.581H6.005V2.581H18.478Z" transform="translate(705.693 524.406)"/>
  </g>
  <g id="Group_1228" data-name="Group 1228" transform="translate(-342 -430)">
    <circle id="Ellipse_347-4" data-name="Ellipse 347" cx="19" cy="19" r="19" transform="translate(699 516)" fill="#efefef"/>
    <path id="Icon_material-tablet-android5-4" data-name="Icon material-tablet-android5" d="M17.4,0H7.081A2.577,2.577,0,0,0,4.5,2.581V18.064a2.577,2.577,0,0,0,2.581,2.581H17.4a2.577,2.577,0,0,0,2.581-2.581V2.581A2.577,2.577,0,0,0,17.4,0ZM13.962,18.924H10.521v-.86h3.441Zm4.516-2.581H6.005V2.581H18.478Z" transform="translate(705.693 524.406)"/>
  </g>
</svg>
