<svg id="Component_154_1" data-name="Component 154 – 1" xmlns="http://www.w3.org/2000/svg" width="129" height="415.797" viewBox="0 0 129 415.797">
  <path id="Icon_ionic-ios-arrow-round-up" data-name="Icon ionic-ios-arrow-round-up" d="M20.617,13.071a.65.65,0,0,1-.915,0l-3.03-3.02V44.224a.647.647,0,0,1-1.293,0V10.056l-3.03,3.025a.655.655,0,0,1-.915,0,.644.644,0,0,1,0-.91l4.129-4.1h0a.726.726,0,0,1,.2-.134.617.617,0,0,1,.249-.05.648.648,0,0,1,.453.184l4.129,4.1A.634.634,0,0,1,20.617,13.071Z" transform="translate(44.476 46.514)"/>
  <g id="Group_1236" data-name="Group 1236" transform="translate(-807 98.797)">
    <circle id="Ellipse_358" data-name="Ellipse 358" cx="19" cy="19" r="19" transform="translate(853 279)" fill="#efefef"/>
    <g id="Group_1235" data-name="Group 1235" transform="translate(860.057 287.143)">
      <path id="Path_352" data-name="Path 352" d="M67.616,127.428a.478.478,0,0,0,.478-.478v-3.187a.478.478,0,0,0-.478-.478H64.129a.478.478,0,0,0-.478.478v3.187a.478.478,0,0,0,.956,0v-2.709h2.531v2.709a.478.478,0,0,0,.478.478" transform="translate(-57.567 -111.5)"/>
      <path id="Path_353" data-name="Path 353" d="M171.142,134.346a.478.478,0,0,0,.478-.478v-2.455a.478.478,0,0,0-.478-.478h-2.568a.478.478,0,0,0-.478.478v2.455a.478.478,0,1,0,.956,0v-1.977h1.612v1.977a.478.478,0,0,0,.478.478" transform="translate(-152.028 -118.419)"/>
      <path id="Path_354" data-name="Path 354" d="M55.432,74.473A.478.478,0,0,0,54.954,74H49.308a.478.478,0,0,0,0,.956h5.646a.478.478,0,0,0,.478-.478" transform="translate(-44.162 -66.922)"/>
      <path id="Path_355" data-name="Path 355" d="M34.667,85.935a.478.478,0,0,0-.478.478v5.8H25.632v-5.8a.478.478,0,1,0-.956,0v5.8H14.313V83.54a.478.478,0,1,0-.956,0v9.153a.478.478,0,0,0,.478.478H34.667a.478.478,0,0,0,.478-.478v-6.28a.478.478,0,0,0-.478-.478" transform="translate(-12.08 -75.122)"/>
      <path id="Path_356" data-name="Path 356" d="M23.8,8.754l-5.683-4.2a.478.478,0,0,0-.568,0L16.081,5.634,8.59.093a.478.478,0,0,0-.569,0L.194,5.884a.478.478,0,1,0,.569.768l7.543-5.58,6.971,5.157L11.863,8.754a.478.478,0,1,0,.568.768l5.4-3.994,5.4,3.994a.478.478,0,0,0,.568-.768" transform="translate(0 0)"/>
    </g>
  </g>
  <g id="Group_1252" data-name="Group 1252" transform="translate(-762 98.797)">
    <circle id="Ellipse_358-2" data-name="Ellipse 358" cx="19" cy="19" r="19" transform="translate(853 279)" fill="#efefef"/>
    <g id="Group_1235-2" data-name="Group 1235" transform="translate(860.057 287.143)">
      <path id="Path_352-2" data-name="Path 352" d="M67.616,127.428a.478.478,0,0,0,.478-.478v-3.187a.478.478,0,0,0-.478-.478H64.129a.478.478,0,0,0-.478.478v3.187a.478.478,0,0,0,.956,0v-2.709h2.531v2.709a.478.478,0,0,0,.478.478" transform="translate(-57.567 -111.5)"/>
      <path id="Path_353-2" data-name="Path 353" d="M171.142,134.346a.478.478,0,0,0,.478-.478v-2.455a.478.478,0,0,0-.478-.478h-2.568a.478.478,0,0,0-.478.478v2.455a.478.478,0,1,0,.956,0v-1.977h1.612v1.977a.478.478,0,0,0,.478.478" transform="translate(-152.028 -118.419)"/>
      <path id="Path_354-2" data-name="Path 354" d="M55.432,74.473A.478.478,0,0,0,54.954,74H49.308a.478.478,0,0,0,0,.956h5.646a.478.478,0,0,0,.478-.478" transform="translate(-44.162 -66.922)"/>
      <path id="Path_355-2" data-name="Path 355" d="M34.667,85.935a.478.478,0,0,0-.478.478v5.8H25.632v-5.8a.478.478,0,1,0-.956,0v5.8H14.313V83.54a.478.478,0,1,0-.956,0v9.153a.478.478,0,0,0,.478.478H34.667a.478.478,0,0,0,.478-.478v-6.28a.478.478,0,0,0-.478-.478" transform="translate(-12.08 -75.122)"/>
      <path id="Path_356-2" data-name="Path 356" d="M23.8,8.754l-5.683-4.2a.478.478,0,0,0-.568,0L16.081,5.634,8.59.093a.478.478,0,0,0-.569,0L.194,5.884a.478.478,0,1,0,.569.768l7.543-5.58,6.971,5.157L11.863,8.754a.478.478,0,1,0,.568.768l5.4-3.994,5.4,3.994a.478.478,0,0,0,.568-.768" transform="translate(0 0)"/>
    </g>
  </g>
  <g id="Group_1253" data-name="Group 1253" transform="translate(-851 98.797)">
    <circle id="Ellipse_358-3" data-name="Ellipse 358" cx="19" cy="19" r="19" transform="translate(853 279)" fill="#efefef"/>
    <g id="Group_1235-3" data-name="Group 1235" transform="translate(860.057 287.143)">
      <path id="Path_352-3" data-name="Path 352" d="M67.616,127.428a.478.478,0,0,0,.478-.478v-3.187a.478.478,0,0,0-.478-.478H64.129a.478.478,0,0,0-.478.478v3.187a.478.478,0,0,0,.956,0v-2.709h2.531v2.709a.478.478,0,0,0,.478.478" transform="translate(-57.567 -111.5)"/>
      <path id="Path_353-3" data-name="Path 353" d="M171.142,134.346a.478.478,0,0,0,.478-.478v-2.455a.478.478,0,0,0-.478-.478h-2.568a.478.478,0,0,0-.478.478v2.455a.478.478,0,1,0,.956,0v-1.977h1.612v1.977a.478.478,0,0,0,.478.478" transform="translate(-152.028 -118.419)"/>
      <path id="Path_354-3" data-name="Path 354" d="M55.432,74.473A.478.478,0,0,0,54.954,74H49.308a.478.478,0,0,0,0,.956h5.646a.478.478,0,0,0,.478-.478" transform="translate(-44.162 -66.922)"/>
      <path id="Path_355-3" data-name="Path 355" d="M34.667,85.935a.478.478,0,0,0-.478.478v5.8H25.632v-5.8a.478.478,0,1,0-.956,0v5.8H14.313V83.54a.478.478,0,1,0-.956,0v9.153a.478.478,0,0,0,.478.478H34.667a.478.478,0,0,0,.478-.478v-6.28a.478.478,0,0,0-.478-.478" transform="translate(-12.08 -75.122)"/>
      <path id="Path_356-3" data-name="Path 356" d="M23.8,8.754l-5.683-4.2a.478.478,0,0,0-.568,0L16.081,5.634,8.59.093a.478.478,0,0,0-.569,0L.194,5.884a.478.478,0,1,0,.569.768l7.543-5.58,6.971,5.157L11.863,8.754a.478.478,0,1,0,.568.768l5.4-3.994,5.4,3.994a.478.478,0,0,0,.568-.768" transform="translate(0 0)"/>
    </g>
  </g>
  <path id="Icon_ionic-ios-arrow-round-up-2" data-name="Icon ionic-ios-arrow-round-up" d="M24.49,15.216a.919.919,0,0,1-1.294.007l-4.282-4.268V27.218a.914.914,0,0,1-1.828,0V10.955L12.8,15.23a.925.925,0,0,1-1.294-.007.91.91,0,0,1,.007-1.287l5.836-5.794h0a1.026,1.026,0,0,1,.288-.19.872.872,0,0,1,.352-.07.916.916,0,0,1,.64.26l5.836,5.794A.9.9,0,0,1,24.49,15.216Z" transform="translate(46.753 342.793)" fill="#acacac"/>
  <path id="Icon_ionic-ios-arrow-round-up-3" data-name="Icon ionic-ios-arrow-round-up" d="M24.49,15.216a.919.919,0,0,1-1.294.007l-4.282-4.268V27.218a.914.914,0,0,1-1.828,0V10.955L12.8,15.23a.925.925,0,0,1-1.294-.007.91.91,0,0,1,.007-1.287l5.836-5.794h0a1.026,1.026,0,0,1,.288-.19.872.872,0,0,1,.352-.07.916.916,0,0,1,.64.26l5.836,5.794A.9.9,0,0,1,24.49,15.216Z" transform="translate(91.753 342.793)" fill="#acacac"/>
  <path id="Icon_ionic-ios-arrow-round-up-4" data-name="Icon ionic-ios-arrow-round-up" d="M24.49,15.216a.919.919,0,0,1-1.294.007l-4.282-4.268V27.218a.914.914,0,0,1-1.828,0V10.955L12.8,15.23a.925.925,0,0,1-1.294-.007.91.91,0,0,1,.007-1.287l5.836-5.794h0a1.026,1.026,0,0,1,.288-.19.872.872,0,0,1,.352-.07.916.916,0,0,1,.64.26l5.836,5.794A.9.9,0,0,1,24.49,15.216Z" transform="translate(2.753 342.793)" fill="#acacac"/>
  <g id="Group_1256" data-name="Group 1256" transform="translate(-977.473 -271.044)">
    <path id="Path_1270" data-name="Path 1270" d="M-5813-3216v46.387h90.465" transform="translate(6805.473 3487.225)" fill="none" stroke="#000" stroke-width="1"/>
    <g id="Chart" transform="translate(998.473 271.044)">
      <g id="m1">
        <path id="Path_1269" data-name="Path 1269" d="M72.6,36,66,21.6l-6.6,2.057L52.8,36,46.2,25.714,39.6,12.343,33,26.743l-6.6-8.229L19.8,9.257l-6.6,3.086L6.6,18.514,0,0" transform="translate(3.796 3.6)" fill="none" stroke="#000" stroke-width="1"/>
        <g id="Marks">
          <g id="Ellipse_360" data-name="Ellipse 360" transform="translate(73 36)" fill="#fff" stroke="#000" stroke-width="1.5">
            <circle cx="3.5" cy="3.5" r="3.5" stroke="none"/>
            <circle cx="3.5" cy="3.5" r="2.75" fill="none"/>
          </g>
          <g id="Ellipse_361" data-name="Ellipse 361" transform="translate(63.309 21.6)" fill="#fff" stroke="#000" stroke-width="1.5">
            <circle cx="3.6" cy="3.6" r="3.6" stroke="none"/>
            <circle cx="3.6" cy="3.6" r="2.85" fill="none"/>
          </g>
          <g id="Ellipse_362" data-name="Ellipse 362" transform="translate(59.577 23.657)" fill="#fff" stroke="#000" stroke-width="1.5">
            <circle cx="3.6" cy="3.6" r="3.6" stroke="none"/>
            <circle cx="3.6" cy="3.6" r="2.85" fill="none"/>
          </g>
          <g id="Ellipse_363" data-name="Ellipse 363" transform="translate(52.966 36)" fill="#fff" stroke="#000" stroke-width="1.5">
            <circle cx="3.6" cy="3.6" r="3.6" stroke="none"/>
            <circle cx="3.6" cy="3.6" r="2.85" fill="none"/>
          </g>
          <g id="Ellipse_364" data-name="Ellipse 364" transform="translate(46.355 25.714)" fill="#fff" stroke="#000" stroke-width="1.5">
            <circle cx="3.6" cy="3.6" r="3.6" stroke="none"/>
            <circle cx="3.6" cy="3.6" r="2.85" fill="none"/>
          </g>
          <g id="Ellipse_365" data-name="Ellipse 365" transform="translate(39.743 12.343)" fill="#fff" stroke="#000" stroke-width="1.5">
            <circle cx="3.6" cy="3.6" r="3.6" stroke="none"/>
            <circle cx="3.6" cy="3.6" r="2.85" fill="none"/>
          </g>
          <g id="Ellipse_366" data-name="Ellipse 366" transform="translate(33.132 26.743)" fill="#fff" stroke="#000" stroke-width="1.5">
            <circle cx="3.6" cy="3.6" r="3.6" stroke="none"/>
            <circle cx="3.6" cy="3.6" r="2.85" fill="none"/>
          </g>
          <g id="Ellipse_367" data-name="Ellipse 367" transform="translate(26.52 18.514)" fill="#fff" stroke="#000" stroke-width="1.5">
            <circle cx="3.6" cy="3.6" r="3.6" stroke="none"/>
            <circle cx="3.6" cy="3.6" r="2.85" fill="none"/>
          </g>
          <g id="Ellipse_368" data-name="Ellipse 368" transform="translate(19.909 9.257)" fill="#fff" stroke="#000" stroke-width="1.5">
            <circle cx="3.6" cy="3.6" r="3.6" stroke="none"/>
            <circle cx="3.6" cy="3.6" r="2.85" fill="none"/>
          </g>
          <g id="Ellipse_369" data-name="Ellipse 369" transform="translate(13.297 12.343)" fill="#fff" stroke="#000" stroke-width="1.5">
            <circle cx="3.6" cy="3.6" r="3.6" stroke="none"/>
            <circle cx="3.6" cy="3.6" r="2.85" fill="none"/>
          </g>
          <g id="Ellipse_370" data-name="Ellipse 370" transform="translate(9.687 18.514)" fill="#fff" stroke="#000" stroke-width="1.5">
            <circle cx="3.6" cy="3.6" r="3.6" stroke="none"/>
            <circle cx="3.6" cy="3.6" r="2.85" fill="none"/>
          </g>
          <g id="Ellipse_371" data-name="Ellipse 371" fill="#fff" stroke="#000" stroke-width="1.5">
            <circle cx="3.6" cy="3.6" r="3.6" stroke="none"/>
            <circle cx="3.6" cy="3.6" r="2.85" fill="none"/>
          </g>
        </g>
      </g>
    </g>
  </g>
  <path id="Icon_awesome-tags" data-name="Icon awesome-tags" d="M21.51,9.76,12.357.607A2.073,2.073,0,0,0,10.891,0H2.073A2.073,2.073,0,0,0,0,2.073v8.817a2.073,2.073,0,0,0,.607,1.466L9.76,21.51a2.073,2.073,0,0,0,2.932,0l8.817-8.817a2.073,2.073,0,0,0,0-2.932ZM4.838,6.912A2.073,2.073,0,1,1,6.912,4.838,2.073,2.073,0,0,1,4.838,6.912Z" transform="translate(49 96.701)"/>
  <path id="Icon_awesome-tags-2" data-name="Icon awesome-tags" d="M21.51,9.76,12.357.607A2.073,2.073,0,0,0,10.891,0H2.073A2.073,2.073,0,0,0,0,2.073v8.817a2.073,2.073,0,0,0,.607,1.466L9.76,21.51a2.073,2.073,0,0,0,2.932,0l8.817-8.817a2.073,2.073,0,0,0,0-2.932ZM4.838,6.912A2.073,2.073,0,1,1,6.912,4.838,2.073,2.073,0,0,1,4.838,6.912Z" transform="translate(49 122)"/>
  <path id="Icon_awesome-tags-3" data-name="Icon awesome-tags" d="M21.51,9.76,12.357.607A2.073,2.073,0,0,0,10.891,0H2.073A2.073,2.073,0,0,0,0,2.073v8.817a2.073,2.073,0,0,0,.607,1.466L9.76,21.51a2.073,2.073,0,0,0,2.932,0l8.817-8.817a2.073,2.073,0,0,0,0-2.932ZM4.838,6.912A2.073,2.073,0,1,1,6.912,4.838,2.073,2.073,0,0,1,4.838,6.912Z" transform="translate(49 147.3)"/>
  <g id="Group_1357" data-name="Group 1357" transform="translate(-812.5 -280.725)">
    <line id="Line_660" data-name="Line 660" y2="40.151" transform="translate(871.5 455.5)" fill="none" stroke="#000" stroke-linecap="round" stroke-width="1"/>
    <line id="Line_865" data-name="Line 865" y2="40.151" transform="translate(873.353 455.5)" fill="none" stroke="#000" stroke-linecap="round" stroke-width="1"/>
    <line id="Line_866" data-name="Line 866" y2="40.151" transform="translate(875.206 455.5)" fill="none" stroke="#000" stroke-linecap="round" stroke-width="1"/>
  </g>
  <g id="Ellipse_407" data-name="Ellipse 407" transform="translate(0 220.797)" fill="#dddbdb" stroke="#000" stroke-width="2">
    <ellipse cx="62.5" cy="62" rx="62.5" ry="62" stroke="none"/>
    <ellipse cx="62.5" cy="62" rx="61.5" ry="61" fill="none"/>
  </g>
  <g id="Group_1358" data-name="Group 1358" transform="translate(-812 -12.477)">
    <g id="Rectangle_828" data-name="Rectangle 828" transform="translate(834 261.274)" fill="none" stroke="#000" stroke-width="2">
      <rect width="82" height="69" rx="8" stroke="none"/>
      <rect x="1" y="1" width="80" height="67" rx="7" fill="none"/>
    </g>
    <line id="Line_547" data-name="Line 547" x2="81.548" transform="translate(834.452 283.145)" fill="none" stroke="#000" stroke-width="2"/>
    <line id="Line_549" data-name="Line 549" x2="16.287" transform="translate(891.022 273.382)" fill="none" stroke="#000" stroke-width="3"/>
    <line id="Line_550" data-name="Line 550" x2="16.287" transform="translate(891.022 295.816)" fill="none" stroke="#000" stroke-width="3"/>
    <line id="Line_551" data-name="Line 551" x2="16.287" transform="translate(891.022 319.347)" fill="none" stroke="#000" stroke-width="3"/>
    <line id="Line_548" data-name="Line 548" x2="81.548" transform="translate(834.452 306.676)" fill="none" stroke="#000" stroke-width="2"/>
    <line id="Line_554" data-name="Line 554" x2="4.402" transform="translate(844.412 273.382)" fill="none" stroke="#000" stroke-width="2"/>
    <line id="Line_553" data-name="Line 553" x2="4.402" transform="translate(844.412 295.816)" fill="none" stroke="#000" stroke-width="2"/>
    <line id="Line_552" data-name="Line 552" x2="4.402" transform="translate(844.412 319.347)" fill="none" stroke="#000" stroke-width="2"/>
    <line id="Line_555" data-name="Line 555" x2="4.402" transform="translate(850.849 273.382)" fill="none" stroke="#000" stroke-width="2"/>
    <line id="Line_556" data-name="Line 556" x2="4.402" transform="translate(850.849 295.816)" fill="none" stroke="#000" stroke-width="2"/>
    <line id="Line_557" data-name="Line 557" x2="4.402" transform="translate(850.849 319.347)" fill="none" stroke="#000" stroke-width="2"/>
    <line id="Line_558" data-name="Line 558" x2="4.402" transform="translate(856.749 273.382)" fill="none" stroke="#000" stroke-width="2"/>
    <line id="Line_559" data-name="Line 559" x2="4.402" transform="translate(856.749 295.816)" fill="none" stroke="#000" stroke-width="2"/>
    <line id="Line_560" data-name="Line 560" x2="4.402" transform="translate(856.749 319.347)" fill="none" stroke="#000" stroke-width="2"/>
  </g>
</svg>
